<svg width="25" height="24" viewBox="0 0 25 24" fill="none" xmlns="http://www.w3.org/2000/svg">
    <path
        d="M17.2505 12.0002H20.8825C21.0529 12.0003 21.2204 12.0439 21.3692 12.1269C21.518 12.2099 21.6431 12.3296 21.7327 12.4746C21.8222 12.6195 21.8733 12.7849 21.8809 12.9552C21.8886 13.1254 21.8527 13.2947 21.7765 13.4472L19.7425 17.5162C19.6654 17.6703 19.5497 17.802 19.4067 17.8983C19.2637 17.9946 19.0982 18.0523 18.9263 18.0657C18.7545 18.0792 18.582 18.048 18.4258 17.9752C18.2695 17.9024 18.1347 17.7904 18.0345 17.6502L15.9105 14.6802M2.50049 19.0002H6.26049C6.63322 19.0028 6.99926 18.9011 7.31731 18.7068C7.63536 18.5124 7.89276 18.233 8.06049 17.9002L9.50049 15.0002M2.50049 21.0002V17.0002M7.50049 9.00016H7.51049M17.6065 9.05316C17.8435 9.17181 18.0237 9.3797 18.1075 9.63115C18.1913 9.8826 18.1719 10.157 18.0535 10.3942L14.9475 16.6052C14.8887 16.7226 14.8074 16.8274 14.7082 16.9135C14.6089 16.9995 14.4937 17.0652 14.3691 17.1067C14.2445 17.1482 14.1129 17.1647 13.9819 17.1554C13.8508 17.146 13.723 17.111 13.6055 17.0522L4.11049 12.3002C3.42082 11.9528 2.89684 11.3463 2.65321 10.6136C2.40957 9.88079 2.46613 9.08134 2.81049 8.39016L4.19049 5.60016C4.36249 5.25738 4.60033 4.95184 4.89043 4.70099C5.18052 4.45015 5.51719 4.2589 5.88121 4.13818C6.24523 4.01746 6.62946 3.96963 7.01196 3.99742C7.39446 4.02522 7.76775 4.12809 8.11049 4.30016L17.6065 9.05316Z"
        stroke="currentColor" stroke-width="1.5" stroke-linecap="round" stroke-linejoin="round" />
</svg>