<svg width="100" height="100" viewBox="0 0 53 51" fill="none" xmlns="http://www.w3.org/2000/svg">
    <path fill-rule="evenodd" clip-rule="evenodd"
        d="M14 12H34C35.1046 12 36 12.8954 36 14V36C36 37.1046 35.1046 38 34 38H14V12ZM23.375 15.375H24H33H33.625V16.625H33H24H23.375V15.375ZM19.7071 14.2929C19.5196 14.1054 19.2652 14 19 14C18.7348 14 18.4804 14.1054 18.2929 14.2929C18.1054 14.4804 18 14.7348 18 15C18 15.2652 18.1054 15.5196 18.2929 15.7071C18.4804 15.8946 18.7348 16 19 16C19.2652 16 19.5196 15.8946 19.7071 15.7071C19.8946 15.5196 20 15.2652 20 15C20 14.7348 19.8946 14.4804 19.7071 14.2929ZM21 17.5C21 16.9475 20.105 16.5 19 16.5C17.895 16.5 17 16.9475 17 17.5V18H21V17.5ZM23.375 21.375H24H33H33.625V22.625H33H24H23.375V21.375ZM19.7071 20.2929C19.5196 20.1054 19.2652 20 19 20C18.7348 20 18.4804 20.1054 18.2929 20.2929C18.1054 20.4804 18 20.7348 18 21C18 21.2652 18.1054 21.5196 18.2929 21.7071C18.4804 21.8946 18.7348 22 19 22C19.2652 22 19.5196 21.8946 19.7071 21.7071C19.8946 21.5196 20 21.2652 20 21C20 20.7348 19.8946 20.4804 19.7071 20.2929ZM21 23.5C21 22.9475 20.105 22.5 19 22.5C17.895 22.5 17 22.9475 17 23.5V24H21V23.5ZM23.375 28.375H24H33H33.625V29.625H33H24H23.375V28.375ZM19.7071 26.2929C19.5196 26.1054 19.2652 26 19 26C18.7348 26 18.4804 26.1054 18.2929 26.2929C18.1054 26.4804 18 26.7348 18 27C18 27.2652 18.1054 27.5196 18.2929 27.7071C18.4804 27.8946 18.7348 28 19 28C19.2652 28 19.5196 27.8946 19.7071 27.7071C19.8946 27.5196 20 27.2652 20 27C20 26.7348 19.8946 26.4804 19.7071 26.2929ZM21 29.5C21 28.9475 20.105 28.5 19 28.5C17.895 28.5 17 28.9475 17 29.5V30H21V29.5ZM23.375 34.375H24H33H33.625V35.625H33H24H23.375V34.375ZM19.7071 32.2929C19.5196 32.1054 19.2652 32 19 32C18.7348 32 18.4804 32.1054 18.2929 32.2929C18.1054 32.4804 18 32.7348 18 33C18 33.2652 18.1054 33.5196 18.2929 33.7071C18.4804 33.8946 18.7348 34 19 34C19.2652 34 19.5196 33.8946 19.7071 33.7071C19.8946 33.5196 20 33.2652 20 33C20 32.7348 19.8946 32.4804 19.7071 32.2929ZM21 35.5C21 34.9475 20.105 34.5 19 34.5C17.895 34.5 17 34.9475 17 35.5V36H21V35.5Z"
        fill="currentColor" />
</svg>