<svg width="16" height="18" viewBox="0 0 16 18" fill="none" xmlns="http://www.w3.org/2000/svg">
    <path
        d="M12.3636 18C11.9738 18 11.6339 17.8505 11.344 17.5515C11.0541 17.2525 10.9091 16.902 10.9091 16.5V1.5C10.9091 1.098 11.0541 0.7475 11.344 0.4485C11.6339 0.1495 11.9738 0 12.3636 0H14.5455C14.9353 0 15.2752 0.1495 15.5651 0.4485C15.855 0.7475 16 1.098 16 1.5V16.5C16 16.902 15.855 17.2525 15.5651 17.5515C15.2752 17.8505 14.9353 18 14.5455 18H12.3636ZM1.45455 18C1.06473 18 0.724848 17.8505 0.434909 17.5515C0.144969 17.2525 0 16.902 0 16.5V1.5C0 1.098 0.144969 0.7475 0.434909 0.4485C0.724848 0.1495 1.06473 0 1.45455 0H3.63636C4.02618 0 4.36606 0.1495 4.656 0.4485C4.94594 0.7475 5.09091 1.098 5.09091 1.5V16.5C5.09091 16.902 4.94594 17.2525 4.656 17.5515C4.36606 17.8505 4.02618 18 3.63636 18H1.45455Z"
        fill="currentColor" />
</svg>